HIERARCHY
ROOT ui
{
	 OFFSET 0 0 0
	 CHANNELS 3 XPosition YPosition Z Position
	 EndSite
	 {
	 OFFSET 0 -1 0
	 }
}
ROOT li
{
	 OFFSET 0 0 0
	 CHANNELS 3 XPosition YPosition Z Position
	 EndSite
	 {
	 OFFSET 0 -1 0
	 }
}
ROOT ul
{
	 OFFSET 0 0 0
	 CHANNELS 3 XPosition YPosition Z Position
	 EndSite
	 {
	 OFFSET 0 -1 0
	 }
}
ROOT ll
{
	 OFFSET 0 0 0
	 CHANNELS 3 XPosition YPosition Z Position
	 EndSite
	 {
	 OFFSET 0 -1 0
	 }
}
ROOT tt
{
	 OFFSET 0 0 0
	 CHANNELS 3 XPosition YPosition Z Position
	 EndSite
	 {
	 OFFSET 0 -1 0
	 }
}
ROOT tb
{
	 OFFSET 0 0 0
	 CHANNELS 3 XPosition YPosition Z Position
	 EndSite
	 {
	 OFFSET 0 -1 0
	 }
}
ROOT td
{
	 OFFSET 0 0 0
	 CHANNELS 3 XPosition YPosition Z Position
	 EndSite
	 {
	 OFFSET 0 -1 0
	 }
}
ROOT v
{
	 OFFSET 0 0 0
	 CHANNELS 3 XPosition YPosition Z Position
	 EndSite
	 {
	 OFFSET 0 -1 0
	 }
}
ROOT bn
{
	 OFFSET 0 0 0
	 CHANNELS 3 XPosition YPosition Z Position
	 EndSite
	 {
	 OFFSET 0 -1 0
	 }
}
MOTION
Frames: 30
Frame Time: 0.002
0.030110456466674804	-0.0012096869945526123	0		0.43862396240234375	-2.41922900390625	0		-0.9471923828125	0.23686848449707032	0		-0.49825192260742185	-2.951463623046875	0		1.6501458740234376	-0.554947021484375	0		3.17970947265625	-0.06800247955322265	0		4.2856220703125	0.043534454345703126	0		5.92712548828125	0.39412884521484376	0		-0.3095262145996094	5.8544013671875	0		
-0.01852621650695801	-0.004611639976501465	0		0.524955322265625	-2.439587890625	0		-0.9518386840820312	0.23311463928222656	0		-0.5058125915527344	-2.9591796875	0		1.64542724609375	-0.5726072998046875	0		3.1972607421875	-0.045767288208007816	0		4.2791572265625	0.0649696044921875	0		5.9215673828125	0.40362857055664064	0		-0.2753175964355469	5.85838916015625	0		
-0.024096317291259765	-3.36203008890152E-4	0		0.4615380554199219	-2.4258779296875	0		-0.9524461059570313	0.23332107543945313	0		-0.47837847900390623	-2.96915771484375	0		1.681811767578125	-0.5775731811523438	0		3.194763671875	-0.03139892578125	0		4.29864306640625	0.07820648193359375	0		5.9170185546875	0.4131085510253906	0		-0.2921824645996094	5.85073486328125	0		
-0.02468280792236328	-1.0777799785137177E-4	0		0.4679580078125	-2.43668212890625	0		-0.953040771484375	0.23351693725585937	0		-0.5059314575195313	-2.97875244140625	0		1.647210693359375	-0.5820424194335938	0		3.183292724609375	-0.01497960090637207	0		4.234142578125	0.09203018188476562	0		5.92541015625	0.4124811706542969	0		-0.276910400390625	5.85983935546875	0		
-0.02027800941467285	-0.003925654888153076	0		0.4435244445800781	-2.429277587890625	0		-0.9345662231445313	0.24056788635253906	0		-0.4974680480957031	-2.98861474609375	0		1.646663818359375	-0.58176806640625	0		3.21268310546875	-0.02086574935913086	0		4.2387099609375	0.1123446044921875	0		5.92876513671875	0.4038728332519531	0		-0.3097393798828125	5.851275390625	0		
0.03822819137573242	0.0018647149801254272	0		0.5000526733398437	-2.4314580078125	0		-0.9310806884765624	0.24471719360351563	0		-0.5088493957519531	-2.980345458984375	0		1.6861397705078125	-0.5827893676757813	0		3.193410888671875	0.016579418182373046	0		4.2372509765625	0.12468511962890624	0		5.93240087890625	0.43024371337890627	0		-0.3124423522949219	5.85448779296875	0		
0.02672443199157715	1.4151200652122496E-4	0		0.46862289428710935	-2.433026611328125	0		-0.9415706787109375	0.24595761108398437	0		-0.48333432006835936	-2.99234521484375	0		1.67659033203125	-0.5934766845703126	0		3.194828857421875	0.003860342979431152	0		4.2248515625	0.13908480834960937	0		5.927841796875	0.42264944458007814	0		-0.32817901611328126	5.8447822265625	0		
0.030253307342529297	-0.0046961941719055175	0		0.46623318481445314	-2.43581005859375	0		-0.9420134887695313	0.24612103271484376	0		-0.5257216186523438	-2.996874755859375	0		1.6761707763671876	-0.5932409057617187	0		3.19752587890625	0.02311660957336426	0		4.21856201171875	0.16142282104492187	0		5.92739404296875	0.4230027160644531	0		-0.32877655029296876	5.84496240234375	0		
-0.02708944892883301	8.841120004653931E-4	0		0.467935546875	-2.432630615234375	0		-0.932406005859375	0.2452095947265625	0		-0.4940758056640625	-3.00392919921875	0		1.6758062744140625	-0.593017333984375	0		3.2111806640625	0.028280162811279298	0		4.21310546875	0.151736083984375	0		5.93094873046875	0.4153043518066406	0		-0.32930123901367186	5.84513623046875	0		
0.025586015701293947	6.9029301404953E-4	0		0.44169485473632814	-2.428263916015625	0		-1.0037051391601564	0.2498583679199219	0		-0.5064293823242187	-3.017680908203125	0		1.675496337890625	-0.5928045654296875	0		3.2031005859375	0.06358192825317383	0		4.238927734375	0.1738160705566406	0		5.93872705078125	0.43155569458007814	0		-0.3156781921386719	5.85620654296875	0		
0.03330877685546875	-1.9371800124645233E-4	0		0.4694583129882812	-2.4302783203125	0		-0.923954345703125	0.25345428466796877	0		-0.4736752014160156	-3.022748779296875	0		1.6752379150390626	-0.5926004028320313	0		3.188718505859375	0.04791387557983398	0		4.2218115234375	0.1971814880371094	0		5.93439306640625	0.4238722839355469	0		-0.28103741455078124	5.86012841796875	0		
-0.027905418395996095	0.0013969310522079469	0		0.4692787475585937	-2.430102294921875	0		-1.0082347412109376	0.24618739318847657	0		-0.5237877197265625	-3.014243408203125	0		1.6690675048828125	-0.5863614501953125	0		3.237618408203125	0.06579866790771484	0		4.2105693359375	0.19549411010742188	0		5.94228076171875	0.44108941650390626	0		-0.29642559814453123	5.8513955078125	0		
0.024909650802612305	0.0011968120336532592	0		0.4831400451660156	-2.429025146484375	0		-0.9383894653320313	0.25085427856445314	0		-0.4590081787109375	-3.026533935546875	0		1.685858154296875	-0.5912860717773437	0		3.212427490234375	0.06518873596191406	0		4.21543505859375	0.2036866455078125	0		5.95097216796875	0.4242878112792969	0		-0.3317353515625	5.846798828125	0		
-0.02327113723754883	-0.002306088924407959	0		0.4390140380859375	-2.42954931640625	0		-1.0045526733398438	0.2504617919921875	0		-0.51713232421875	-3.027974853515625	0		1.680753662109375	-0.5850621337890625	0		3.181314208984375	0.07161331939697266	0		4.1974345703125	0.2270304260253906	0		5.95092919921875	0.4415370788574219	0		-0.3309789123535156	5.845953125	0		
0.024620534896850586	0.0015300309658050537	0		0.4709229736328125	-2.42759716796875	0		-0.9246649169921874	0.25406541442871095	0		-0.5042773132324219	-3.03490380859375	0		1.66861962890625	-0.5857916870117188	0		3.21709521484375	0.05957278823852539	0		4.18528857421875	0.22632818603515625	0		5.95472705078125	0.43275152587890625	0		-0.28109228515625	5.859771484375	0		
-0.016482938766479494	0.004980327129364014	0		0.4428470458984375	-2.42423095703125	0		-0.9947637329101563	0.25870394897460935	0		-0.48132684326171876	-3.028899169921875	0		1.703528076171875	-0.5818444213867188	0		3.219203125	0.09376371002197266	0		4.19626171875	0.24146487426757812	0		5.95065869140625	0.4420156555175781	0		-0.2963460083007812	5.8510400390625	0		
0.02833523178100586	-0.0031569290161132814	0		0.4847320861816406	-2.426343017578125	0		-0.9349212036132812	0.2544534149169922	0		-0.4874754638671875	-3.036691650390625	0		1.6694776611328126	-0.5714223022460938	0		3.1958779296875	0.0651273193359375	0		4.1961318359375	0.24167672729492187	0		5.9455830078125	0.4502838134765625	0		-0.2975267333984375	5.85221484375	0		
-0.055759498596191406	0.0035927278995513917	0		0.4296533203125	-2.42078759765625	0		-0.9300341796875	0.2585844421386719	0		-0.4895974731445312	-3.03850830078125	0		1.725302978515625	-0.577614990234375	0		3.214814208984375	0.07620237731933593	0		4.202044921875	0.24984713745117187	0		5.94138623046875	0.4425434265136719	0		-0.3127962341308594	5.8414892578125	0		
0.020044832229614257	-0.0017495379447937012	0		0.4664456787109375	-2.430858642578125	0		-1.0102147827148438	0.2563011169433594	0		-0.5267158813476562	-3.036081787109375	0		1.6661634521484374	-0.5750186767578125	0		3.22060595703125	0.06936756134033203	0		4.1899365234375	0.25814065551757814	0		5.94527734375	0.45074591064453123	0		-0.33197265625	5.8467939453125	0		
-0.02414274597167969	-0.0012676140069961548	0		0.4403041687011719	-2.426496337890625	0		-1.0013577880859375	0.26341278076171876	0		-0.4898950500488281	-3.038157470703125	0		1.6889993896484374	-0.5719813842773438	0		3.218608154296875	0.09758724212646484	0		4.18979296875	0.26535205078125	0		5.9530849609375	0.4509194641113281	0		-0.36724075317382815	5.8422119140625	0		
0.02366109848022461	0.002589508056640625	0		0.46015350341796873	-2.41844482421875	0		-1.0066024169921874	0.2606246032714844	0		-0.537012451171875	-3.02565576171875	0		1.671808837890625	-0.5676683959960938	0		3.215159912109375	0.06481662750244141	0		4.20662158203125	0.2734485473632812	0		5.952859375	0.45114736938476563	0		-0.3324720458984375	5.8471552734375	0		
-0.051624053955078124	-7.104089856147766E-4	0		0.45889752197265626	-2.42024609375	0		-0.945892578125	0.2563904113769531	0		-0.4703202209472656	-3.03592724609375	0		1.71953173828125	-0.570794921875	0		3.244049072265625	0.08683006286621094	0		4.206359375	0.2736647033691406	0		5.96565771484375	0.4602897033691406	0		-0.2987332763671875	5.85310986328125	0		
0.02404833984375	-0.005035502910614014	0		0.45660397338867187	-2.4220361328125	0		-0.9511589965820313	0.2616096496582031	0		-0.5075877685546875	-3.034486572265625	0		1.6792452392578125	-0.5693167724609375	0		3.201648681640625	0.07233393096923828	0		4.20605712890625	0.27388702392578124	0		5.9524169921875	0.4696165466308594	0		-0.16592347717285155	5.87539404296875	0		
-0.05722476196289063	0.004712087154388428	0		0.42830279541015626	-2.419645263671875	0		-0.9465315551757812	0.25676446533203123	0		-0.50789794921875	-3.0342939453125	0		1.678913818359375	-0.5691055297851563	0		3.201311767578125	0.07255825042724609	0		4.210771484375	0.282082763671875	0		5.95207666015625	0.4698644714355469	0		-0.33449658203125	5.848732421875	0		
0.031336549758911134	-0.005690814018249512	0		0.4409356689453125	-2.422527587890625	0		-1.02190087890625	0.25746673583984375	0		-0.5242247924804687	-3.03198828125	0		1.6646051025390625	-0.5607935180664062	0		3.23190771484375	0.06757899475097656	0		4.1814541015625	0.29051666259765624	0		5.97364208984375	0.4609716796875	0		-0.3329394226074219	5.84591748046875	0		
-0.01897392463684082	0.0068555111885070805	0		0.46263235473632813	-2.4124658203125	0		-0.9582367553710938	0.2662303771972656	0		-0.4645572814941406	-3.02719287109375	0		1.7182430419921875	-0.5569370727539062	0		3.23762255859375	0.08377513122558594	0		4.2160556640625	0.2905220947265625	0		5.96730615234375	0.47027471923828124	0		-0.3193055419921875	5.8580263671875	0		
0.021596595764160155	0.00379115891456604	0		0.4571981506347656	-2.41921435546875	0		-0.9626742553710937	0.2624625244140625	0		-0.5128699340820313	-3.01665869140625	0		1.714819580078125	-0.5596881713867188	0		3.213112548828125	0.06917991638183593	0		4.20365087890625	0.29185076904296875	0		5.9668935546875	0.4705406799316406	0		-0.3017860412597656	5.855115234375	0		
-0.026843645095825194	3.3555999398231505E-4	0		0.48378887939453125	-2.421173828125	0		-0.9771646728515625	0.2517693023681641	0		-0.4782882080078125	-3.020679931640625	0		1.7064234619140626	-0.5574010620117188	0		3.230690673828125	0.06830307006835938	0		4.1922333984375	0.2921751403808594	0		5.962421875	0.4628345947265625	0		-0.3503604736328125	5.8386572265625	0		
0.021716892242431642	-0.00377081298828125	0		0.4284218444824219	-2.41657421875	0		-0.97757763671875	0.25198768615722655	0		-0.4986858825683594	-3.0213232421875	0		1.70308349609375	-0.5471448974609375	0		3.224177734375	0.05359011459350586	0		4.185765625	0.284466064453125	0		5.96200732421875	0.4630987854003906	0		-0.3017033386230469	5.85454833984375	0		
0.02037140464782715	0.004465133190155029	0		0.4570335998535156	-2.41653857421875	0		-0.9779784545898438	0.25221211242675784	0		-0.5290157470703125	-3.01289404296875	0		1.66672119140625	-0.5416642456054688	0		3.22987890625	0.06879449462890624	0		4.20236328125	0.2845995178222656	0		5.96565966796875	0.47133038330078125	0		-0.33517840576171876	5.8479990234375	0		
